Coordinates
version=1
nRows=12
nColumns=23
inDegrees=yes

Units are S.I. units (second, meters, Newtons, ...)
If the header above contains a line with 'inDegrees', this indicates whether rotational values are in degrees (yes) or radians (no).

endheader
time	pelvis_tilt	pelvis_list	pelvis_rotation	pelvis_tx	pelvis_ty	pelvis_tz	hip_flexion_r	hip_adduction_r	hip_rotation_r	knee_angle_r	knee_angle_r_beta	ankle_angle_r	subtalar_angle_r	mtp_angle_r	hip_flexion_l	hip_adduction_l	hip_rotation_l	knee_angle_l	knee_angle_l_beta	ankle_angle_l	subtalar_angle_l	mtp_angle_l
      0.00000000	     -4.27559858	      1.23296855	     -4.09186325	      2.20671905	      1.00179747	      0.99950548	     -8.47883471	      2.11722052	     -4.15216774	     21.52965568	      0.37576338	      5.38150032	      1.15626187	      0.00000000	     36.95381324	     -2.03327139	     -4.59444042	     72.47793527	      1.26497861	     12.01953849	     -7.00867823	      0.00000000
      0.00666667	     -4.42916540	      1.62512621	     -3.56050449	      2.20888973	      1.00631807	      0.99884541	     -9.61208154	      1.66070711	     -5.32236154	     20.49938292	      0.35778173	      2.79125216	      1.04386012	      0.00000000	     36.89401096	     -1.54539026	     -5.13715202	     69.19773021	      1.20772823	     12.00835971	     -6.10311641	      0.00000000
      0.01333333	     -4.52683672	      1.97785815	     -3.13231685	      2.21104201	      1.01077805	      0.99833736	    -10.83586660	      1.30615619	     -6.20625616	     19.38818900	      0.33838773	      0.09674937	      0.70075548	      0.00000000	     36.63540176	     -1.14157145	     -5.77890328	     65.78068727	      1.14808958	     11.97610367	     -5.10256930	      0.00000000
      0.02000000	     -4.99742464	      2.36279260	     -2.75693465	      2.21296368	      1.01444969	      0.99777561	    -11.40099304	      0.86170565	     -7.27672252	     18.78847597	      0.32792077	     -2.26633793	      0.59017376	      0.00000000	     36.72111230	     -0.67646889	     -6.41369178	     62.29811819	      1.08730728	     11.94341159	     -4.04748223	      0.00000000
      0.02666667	     -4.97791777	      2.69264726	     -2.35596490	      2.21510951	      1.01851853	      0.99716293	    -12.63005120	      0.55257349	     -8.13541287	     17.91998771	      0.31276279	     -4.68803216	      0.19259270	      0.00000000	     36.14649770	     -0.18795219	     -7.02276626	     58.68213991	      1.02419655	     11.97850497	     -2.80439680	      0.00000000
      0.03333333	     -5.44683538	      2.93022140	     -2.03212565	      2.21681945	      1.02157119	      0.99649588	    -12.97133914	      0.25410592	     -9.07766952	     17.75726797	      0.30992279	     -6.78750963	     -0.10517380	      0.00000000	     36.10413199	      0.20690269	     -7.58843008	     55.08534932	      0.96142072	     11.92823056	     -1.53293211	      0.00000000
      0.04000000	     -5.55803665	      3.09651642	     -1.73490963	      2.21864969	      1.02476660	      0.99586599	    -13.71825018	      0.07495109	     -9.76293906	     17.55920173	      0.30646588	     -8.74512090	     -0.62204776	      0.00000000	     35.58817910	      0.53696744	     -8.21055874	     51.43112898	      0.89764254	     11.97098980	      0.05378252	      0.00000000
      0.04666667	     -6.15644242	      3.15667215	     -1.38264812	      2.22020130	      1.02689020	      0.99494296	    -13.65212237	     -0.06865881	    -10.58886417	     17.98400666	      0.31388013	    -10.26594531	     -0.91921444	      0.00000000	     35.62558442	      0.90916623	     -8.54886954	     47.81997079	      0.83461594	     11.95095009	      1.44735664	      0.00000000
      0.05333333	     -6.52968595	      3.23538542	     -1.06692421	      2.22163242	      1.02884491	      0.99399700	    -13.69039459	     -0.29518589	    -11.43872196	     18.71300408	      0.32660353	    -11.43982149	     -1.33574491	      0.00000000	     35.36874144	      1.30296247	     -8.95849005	     44.18239486	      0.77112826	     11.89830570	      3.02529425	      0.00000000
      0.06000000	     -6.84437749	      3.25124178	     -0.81279712	      2.22287027	      1.03043892	      0.99307181	    -13.63056142	     -0.50498306	    -12.13874027	     19.79033556	      0.34540652	    -12.19267379	     -1.65384911	      0.00000000	     35.03314313	      1.64171586	     -9.34277953	     40.58994567	      0.70842820	     11.84225718	      4.68972131	      0.00000000
      0.06666667	     -7.19817869	      3.28038347	     -0.59602063	      2.22397797	      1.03153664	      0.99209823	    -13.37625248	     -0.79050785	    -12.74201963	     21.21528921	      0.37027665	    -12.48440812	     -1.76015285	      0.00000000	     34.71231119	      2.01775809	     -9.70007733	     37.03493674	      0.64638158	     11.74414207	      6.36705528	      0.00000000
      0.07333333	     -7.64251785	      3.30707911	     -0.33529298	      2.22491241	      1.03195748	      0.99097500	    -12.86975327	     -1.17296177	    -13.52290647	     23.03489034	      0.40203468	    -12.20869148	     -1.31111387	      0.00000000	     34.49262060	      2.47763849	     -9.85712155	     33.56658367	      0.58584740	     11.54737315	      7.85516418	      0.00000000
